<svg width="42" height="42" viewBox="0 0 42 42" fill="none" xmlns="http://www.w3.org/2000/svg">
<rect width="42" height="42" fill="#121212"/>
<path d="M5.25 36.75V29.3125L28.35 6.25625C28.7 5.93542 29.0868 5.6875 29.5103 5.5125C29.9338 5.3375 30.3782 5.25 30.8438 5.25C31.3104 5.25 31.7625 5.3375 32.2 5.5125C32.6375 5.6875 33.0167 5.95 33.3375 6.3L35.7437 8.75C36.0937 9.07083 36.3493 9.45 36.5103 9.8875C36.6713 10.325 36.7512 10.7625 36.75 11.2C36.75 11.6667 36.6695 12.1118 36.5085 12.5353C36.3475 12.9588 36.0926 13.3449 35.7437 13.6937L12.6875 36.75H5.25ZM30.8 13.65L33.25 11.2L30.8 8.75L28.35 11.2L30.8 13.65Z" fill="white"/>
</svg>
