<svg width="42" height="42" viewBox="0 0 42 42" fill="none" xmlns="http://www.w3.org/2000/svg">
<path d="M36.75 36.75V29.3125L13.65 6.25625C13.3 5.93542 12.9132 5.6875 12.4897 5.5125C12.0662 5.3375 11.6217 5.25 11.1562 5.25C10.6896 5.25 10.2375 5.3375 9.8 5.5125C9.3625 5.6875 8.98334 5.95 8.6625 6.3L6.25625 8.75C5.90625 9.07083 5.65075 9.45 5.48975 9.8875C5.32875 10.325 5.24883 10.7625 5.25 11.2C5.25 11.6667 5.3305 12.1118 5.4915 12.5353C5.6525 12.9588 5.90742 13.3449 6.25625 13.6937L29.3125 36.75H36.75ZM11.2 13.65L8.75 11.2L11.2 8.75L13.65 11.2L11.2 13.65Z" fill="white"/>
</svg>
