<svg width="19" height="24" viewBox="0 0 19 24" fill="none" xmlns="http://www.w3.org/2000/svg">
<path d="M2.375 24C1.72188 24 1.16256 23.7648 0.697064 23.2944C0.231564 22.824 -0.00078965 22.2592 2.01613e-06 21.6V2.4C2.01613e-06 1.74 0.232752 1.1748 0.698252 0.704402C1.16375 0.234002 1.72267 -0.000797963 2.375 2.03735e-06H16.625C17.2781 2.03735e-06 17.8374 0.235202 18.3029 0.705602C18.7684 1.176 19.0008 1.7408 19 2.4V21.6C19 22.26 18.7673 22.8252 18.3018 23.2956C17.8363 23.766 17.2773 24.0008 16.625 24H2.375ZM8.3125 10.8L11.2812 9L14.25 10.8V2.4H8.3125V10.8Z" fill="white"/>
</svg>
