<svg width="21" height="24" viewBox="0 0 21 24" fill="none" xmlns="http://www.w3.org/2000/svg">
<path d="M10.3636 0L20.7273 6V18L10.3636 24L0 18V6L10.3636 0ZM10.3636 15.2727C11.2316 15.2727 12.064 14.9279 12.6778 14.3142C13.2916 13.7004 13.6364 12.868 13.6364 12C13.6364 11.132 13.2916 10.2996 12.6778 9.68583C12.064 9.07208 11.2316 8.72727 10.3636 8.72727C9.49565 8.72727 8.66322 9.07208 8.04947 9.68583C7.43571 10.2996 7.09091 11.132 7.09091 12C7.09091 12.868 7.43571 13.7004 8.04947 14.3142C8.66322 14.9279 9.49565 15.2727 10.3636 15.2727Z" fill="white"/>
</svg>
